<?xml version="1.0" encoding="UTF-8" standalone="no"?>
<!DOCTYPE svg PUBLIC "-//W3C//DTD SVG 1.1//EN" "http://www.w3.org/Graphics/SVG/1.1/DTD/svg11.dtd">
<svg width="100%" height="100%" viewBox="0 0 520 520" version="1.1" xmlns="http://www.w3.org/2000/svg" xmlns:xlink="http://www.w3.org/1999/xlink" xml:space="preserve" xmlns:serif="http://www.serif.com/" style="fill-rule:evenodd;clip-rule:evenodd;stroke-linejoin:round;stroke-miterlimit:2;">
    <g>
        <g transform="matrix(1.08319,0,0,1.08319,-21.3868,-21.8696)">
            <path d="M240.423,21.539C117.474,31.543 20.786,120.904 20.786,260.042C20.786,385.573 117.474,488.533 240.423,498.533L240.423,457.26C140.196,447.381 61.897,362.869 61.897,260.042C61.897,157.227 140.196,72.71 240.423,62.831L240.423,21.539Z" style="fill:rgb(53,55,149);"/>
        </g>
        <g transform="matrix(1.08319,0,0,1.08319,-21.3868,-21.8696)">
            <path d="M279.582,21.467L279.582,62.76C351.087,69.811 411.409,114.83 440.117,177.398L365.209,205.151C345.41,167.187 305.684,141.274 259.906,141.274C194.344,141.274 141.221,194.427 141.221,259.969C141.221,325.545 194.344,378.664 259.906,378.664C305.684,378.664 345.41,352.758 365.209,314.791L440.117,342.543C411.409,405.103 351.087,450.139 279.582,457.18L279.582,498.463C402.526,488.471 499.214,385.503 499.214,259.969C499.214,134.424 402.525,31.472 279.582,21.467ZM428.304,278.748L308.373,278.748C300.825,298.212 282.045,312.068 259.92,312.068C231.146,312.068 207.827,288.734 207.827,259.968C207.827,231.197 231.146,207.869 259.92,207.869C282.04,207.869 300.825,221.725 308.373,241.179L428.304,241.179L428.304,278.748Z" style="fill:rgb(111,190,68);fill-rule:nonzero;"/>
        </g>
    </g>
</svg>
